<?xml version="1.0" encoding="UTF-8" standalone="no"?>
<!-- Created with Inkscape (http://www.inkscape.org/) -->

<svg
   width="500"
   height="160"
   viewBox="0 0 132.29166 42.333333"
   version="1.1"
   id="svg22100"
   inkscape:version="1.2.2 (b0a8486541, 2022-12-01)"
   sodipodi:docname="we_suite.svg"
   xml:space="preserve"
   xmlns:inkscape="http://www.inkscape.org/namespaces/inkscape"
   xmlns:sodipodi="http://sodipodi.sourceforge.net/DTD/sodipodi-0.dtd"
   xmlns="http://www.w3.org/2000/svg"
   xmlns:svg="http://www.w3.org/2000/svg"><sodipodi:namedview
     id="namedview22102"
     pagecolor="#505050"
     bordercolor="#eeeeee"
     borderopacity="1"
     inkscape:showpageshadow="0"
     inkscape:pageopacity="0"
     inkscape:pagecheckerboard="0"
     inkscape:deskcolor="#505050"
     inkscape:document-units="mm"
     showgrid="false"
     inkscape:zoom="0.75187991"
     inkscape:cx="475.47487"
     inkscape:cy="7.3149979"
     inkscape:window-width="1920"
     inkscape:window-height="1016"
     inkscape:window-x="0"
     inkscape:window-y="27"
     inkscape:window-maximized="1"
     inkscape:current-layer="g22037" /><defs
     id="defs22097"><filter
       inkscape:collect="always"
       style="color-interpolation-filters:sRGB"
       id="filter17624-6"
       x="-4.3483002e-05"
       y="-5.2508162e-05"
       width="1.000087"
       height="1.000105"><feGaussianBlur
         inkscape:collect="always"
         stdDeviation="0.00091944886"
         id="feGaussianBlur17626-2" /></filter></defs><g
     inkscape:label="Capa 1"
     inkscape:groupmode="layer"
     id="layer1"><g
       id="g22037"
       style="fill:#ffffff"
       transform="matrix(3.8432232,0,0,3.8241269,472.96225,-926.33746)"><g
         id="g27865"><path
           id="path21813"
           style="fill:#ff1b6d;fill-opacity:1;stroke-width:0.237375;filter:url(#filter17624-6);stop-color:#000000"
           d="m -62.259708,83.574811 c -0.553874,9.85e-4 -1.061744,0.308327 -1.318843,0.799007 l -0.0064,0.01283 c -0.0307,0.0598 -0.05792,0.122724 -0.08022,0.186114 l -7.864925,18.293738 c -0.25335,0.4208 -0.468628,0.82313 -0.625729,1.22578 l -0.0032,0.003 c -0.0025,0.006 -0.004,0.0129 -0.0064,0.0193 -0.166793,0.43357 -0.265945,0.86857 -0.266336,1.33168 5e-5,1.88761 1.436767,3.2441 3.324383,3.24416 0.100174,10e-4 0.201805,-0.006 0.301633,-0.0161 0.02881,-0.003 0.05787,-0.006 0.08664,-0.01 0.09739,-0.013 0.195356,-0.0311 0.292007,-0.0546 0.0052,-10e-4 0.01085,-0.002 0.01604,-0.003 0.09415,-0.0234 0.186025,-0.0537 0.279171,-0.0866 0.136867,-0.0486 0.270378,-0.10499 0.404317,-0.17328 0.04542,-0.0231 0.08976,-0.0517 0.134772,-0.077 0.08692,-0.0489 0.174704,-0.10045 0.259918,-0.15724 0.04854,-0.0323 0.09648,-0.0647 0.144399,-0.0995 0.128078,-0.093 0.255581,-0.19173 0.378646,-0.30164 0.0231,-0.0206 0.04448,-0.0462 0.06739,-0.0674 0.07452,-0.069 0.149087,-0.13691 0.221412,-0.21179 l 0.0032,-0.0128 c 0.309832,-0.32188 0.600836,-0.68935 0.859975,-1.10706 l 3.289085,-4.29346 -1.883603,10.94543 c -0.01914,0.0793 -0.03691,0.16027 -0.05134,0.24067 l -0.0032,0.003 c -0.01863,0.0994 -0.0293,0.19783 -0.04172,0.29842 l -0.0032,0.0192 c -0.0062,0.0987 -0.01284,0.19908 -0.01284,0.29843 2e-5,0.30778 0.03899,0.60716 0.11231,0.89206 5.71e-4,0.002 0.0026,0.004 0.0032,0.006 0.01418,0.0547 0.03146,0.11325 0.04813,0.16686 0.01702,0.0545 0.03502,0.10711 0.05455,0.16044 8.02e-4,0.002 0.0024,0.004 0.0032,0.006 0.01929,0.0524 0.03932,0.10607 0.06097,0.15724 l 0.0032,0.003 c 0.02207,0.052 0.04296,0.10332 0.06739,0.15402 10e-4,0.002 0.0022,0.004 0.0032,0.006 0.0241,0.0498 0.04749,0.0992 0.0738,0.14761 0.0011,0.002 0.0021,0.004 0.0032,0.006 0.0264,0.0484 0.05489,0.0942 0.08343,0.14119 0.01371,0.0227 0.02752,0.0451 0.04172,0.0674 0.01682,0.0264 0.03385,0.0543 0.05134,0.0802 l 0.0032,0.003 c 0.03126,0.0461 0.06293,0.0902 0.09627,0.13477 0.0014,0.002 0.0018,0.005 0.0032,0.006 0.03291,0.0438 0.06783,0.0861 0.102684,0.12835 0.0015,0.002 0.0017,0.005 0.0032,0.006 0.03495,0.0422 0.07229,0.0814 0.109102,0.12194 0.0016,0.002 0.0016,0.005 0.0032,0.006 0.03693,0.0405 0.07678,0.08 0.115519,0.11873 0.08106,0.0814 0.16814,0.16096 0.256709,0.23424 0.04292,0.0353 0.08699,0.0694 0.131563,0.10269 l 0.0032,0.003 c 0.04461,0.0333 0.08859,0.0651 0.134772,0.0963 l 0.0032,0.003 c 0.04625,0.0312 0.09343,0.0608 0.14119,0.0898 l 0.0032,0.003 c 0.243967,0.14824 0.511628,0.26943 0.789381,0.35618 0.335044,0.10421 0.692799,0.16044 1.062134,0.16044 0.930124,-6.8e-4 1.82127,-0.36411 2.486869,-1.014 h 0.0032 l 0.01925,-0.0225 c 0.127916,-0.12667 0.246171,-0.26284 0.352975,-0.40753 0.01242,-0.0124 0.09927,-0.11666 0.11231,-0.13156 v -0.01 c 1.211524,-1.39843 14.246797,-16.451944 18.014561,-21.027674 1.18844,-1.422415 1.425551,-2.420948 1.472868,-3.266623 -6.2e-5,-2.061438 -1.430856,-3.787394 -3.353262,-4.242118 -2.023995,-0.366983 -3.873968,0.86969 -4.855011,2.20449 l -10.913345,15.007845 0.811842,-10.287607 c 0.006,-0.05589 0.01284,-0.112217 0.01284,-0.166861 l 0.0032,-0.0353 h -0.0032 c 0.0011,-0.02484 0.0022,-0.05145 0.0032,-0.0738 2.7e-5,-0.580187 -0.200354,-1.112324 -0.539089,-1.530628 -0.0048,-0.0059 -0.01123,-0.01017 -0.01604,-0.01604 l -0.0032,-0.0032 c -0.08462,-0.102152 -0.175984,-0.198493 -0.275962,-0.285589 -0.0058,-0.0051 -0.01342,-0.0078 -0.01925,-0.01284 -0.09966,-0.08521 -0.205063,-0.165822 -0.317678,-0.234247 -0.03341,-0.02039 -0.06823,-0.03896 -0.102683,-0.05776 -0.03153,-0.01713 -0.0607,-0.03558 -0.09306,-0.05134 -0.003,-0.0015 -0.0066,-0.0017 -0.0096,-0.0032 -0.03548,-0.0171 -0.07269,-0.03273 -0.109101,-0.04813 -0.291441,-0.12381 -0.609766,-0.195748 -0.946615,-0.195741 -0.216693,1.36e-4 -0.430177,0.031 -0.635355,0.08664 -0.04118,0.01115 -0.08147,0.02202 -0.121937,0.0353 -0.403327,0.132382 -0.770337,0.369948 -1.058925,0.693115 l -0.04492,0.05134 v 0.0032 c -0.01794,0.0211 -0.03736,0.04252 -0.05455,0.06418 v 0.0032 l -0.0064,0.0064 -2.291128,2.759623 -0.04172,0.04172 0.715576,-2.721116 1.761666,-7.001741 c 0.0137,-0.0454 0.026,-0.0915 0.0353,-0.137981 l 0.0064,-0.01925 h -0.0032 c 0.0181,-0.0924 0.02848,-0.18818 0.02888,-0.28238 4e-5,-0.823448 -0.665662,-1.491317 -1.488912,-1.492121 z m 28.937532,8.198646 c -0.930124,6.83e-4 -1.824479,0.367321 -2.490078,1.01721 l -0.01925,0.02246 c -0.127916,0.126674 -0.246171,0.262844 -0.352975,0.407526 -0.01242,0.01242 -0.102479,0.11666 -0.115519,0.131563 v 0.01284 c -1.217925,1.40583 -14.247865,16.450034 -18.014561,21.024474 -1.188441,1.42241 -1.422343,2.41774 -1.469659,3.26341 6.2e-5,2.06144 1.427647,3.79061 3.350053,4.24533 2.023995,0.36698 3.873968,-0.8729 4.855011,-2.2077 l 10.916554,-15.00465 -0.815051,10.28762 c -0.006,0.0559 -0.01284,0.10901 -0.01284,0.16365 l -0.0032,0.0385 h 0.0032 c -0.0011,0.0248 -0.0022,0.0482 -0.0032,0.0706 -1.2e-5,0.27119 0.04334,0.53293 0.125146,0.77655 0.0018,0.005 0.0046,0.0106 0.0064,0.016 0.01814,0.0528 0.03938,0.10619 0.06097,0.15724 0.005,0.0118 0.01089,0.0236 0.01604,0.0353 0.02662,0.0602 0.0554,0.11898 0.08664,0.17648 0.0072,0.0132 0.01507,0.0254 0.02246,0.0385 0.06253,0.11025 0.130195,0.2158 0.208576,0.31447 0.0061,0.008 0.01304,0.0148 0.01925,0.0225 0.08012,0.0984 0.168823,0.19121 0.263127,0.27596 0.01689,0.0153 0.03402,0.0302 0.05134,0.0449 0.08323,0.0707 0.17083,0.13661 0.263127,0.19574 0.378404,0.24349 0.828666,0.38507 1.312425,0.38506 0.260055,-1.6e-4 0.515286,-0.0393 0.757292,-0.11873 0.04015,-0.0132 0.07936,-0.0297 0.118728,-0.0449 0.355951,-0.1378 0.680468,-0.35734 0.940197,-0.64819 l 0.04492,-0.0545 c 0.0185,-0.0217 0.03685,-0.0419 0.05455,-0.0642 v -0.003 l 2.297546,-2.76604 0.04171,-0.0417 -0.715576,2.72111 -1.764875,6.99853 c -0.0137,0.0454 -0.026,0.0915 -0.0353,0.13799 l -0.0032,0.0225 c -0.0181,0.0924 -0.02527,0.18497 -0.02567,0.27917 -4e-5,0.82345 0.665663,1.49132 1.488913,1.49212 h 0.0032 c 0.553873,-9.8e-4 1.061744,-0.30833 1.318843,-0.79901 l 0.0064,-0.0128 c 0.0307,-0.0598 0.05792,-0.11952 0.08022,-0.18291 l 7.864925,-18.29373 c 0.253327,-0.42076 0.468631,-0.82639 0.625728,-1.22899 0.0025,-0.006 0.004,-0.0129 0.0064,-0.0193 0.03981,-0.10348 0.07756,-0.20721 0.109101,-0.31126 0.0043,-0.014 0.0087,-0.0277 0.01284,-0.0417 0.0282,-0.0967 0.05344,-0.19419 0.0738,-0.29201 0.002,-0.01 0.0045,-0.0193 0.0064,-0.0289 0.01,-0.0501 0.01465,-0.10033 0.02246,-0.15082 0.009,-0.0575 0.01962,-0.11509 0.02567,-0.17327 0.01119,-0.10974 0.01916,-0.22109 0.01925,-0.33373 -5e-5,-1.88761 -1.439976,-3.2441 -3.327592,-3.24416 -0.09828,-0.001 -0.197266,0.003 -0.295215,0.0128 -0.03851,0.004 -0.0771,0.0105 -0.115519,0.016 -0.197848,0.0282 -0.393171,0.0771 -0.587223,0.14761 -0.128437,0.0468 -0.256025,0.10271 -0.381854,0.16686 -0.04214,0.0214 -0.08335,0.0473 -0.125146,0.0706 -0.09436,0.0527 -0.186821,0.11127 -0.279171,0.17328 -0.04353,0.0292 -0.08853,0.0555 -0.131564,0.0866 -0.08862,0.0643 -0.173629,0.13612 -0.259917,0.20858 -0.09835,0.0825 -0.193898,0.17053 -0.288798,0.26313 -0.03922,0.0383 -0.08015,0.0724 -0.118728,0.11231 v 0.006 c -0.311821,0.32309 -0.605793,0.6934 -0.866393,1.11347 l -3.289086,4.29346 1.886812,-10.94864 c 0.01914,-0.0793 0.0337,-0.157057 0.04813,-0.237456 l 0.0032,-0.0032 c 0.0018,-0.0094 0.0015,-0.01945 0.0032,-0.02888 0.01585,-0.09004 0.03047,-0.181696 0.04171,-0.272753 l 0.0032,-0.01925 c 0.0062,-0.09873 0.0096,-0.195863 0.0096,-0.295216 -1.6e-5,-0.248637 -0.02537,-0.490911 -0.0738,-0.725203 -0.01141,-0.05577 -0.02452,-0.112073 -0.03851,-0.166861 -5.84e-4,-0.0023 -0.0026,-0.0041 -0.0032,-0.0064 -0.01408,-0.05471 -0.02835,-0.109992 -0.04493,-0.163652 -7.02e-4,-0.0023 -0.0025,-0.0042 -0.0032,-0.0064 -0.01696,-0.05453 -0.03187,-0.107072 -0.05134,-0.160443 -4.83e-4,-0.0013 -0.0027,-0.0019 -0.0032,-0.0032 -0.01919,-0.05241 -0.03942,-0.106012 -0.06097,-0.157235 -9.38e-4,-0.0022 -0.0023,-0.0042 -0.0032,-0.0064 -0.02162,-0.05112 -0.04348,-0.100947 -0.06739,-0.150817 -10e-4,-0.0021 -0.0022,-0.0043 -0.0032,-0.0064 -0.02401,-0.04983 -0.05079,-0.0991 -0.07701,-0.147607 -0.0011,-0.0021 -0.0021,-0.0043 -0.0032,-0.0064 -0.02675,-0.04924 -0.05446,-0.09659 -0.08343,-0.144399 -7.75e-4,-0.0013 -0.0024,-0.0019 -0.0032,-0.0032 -0.02828,-0.04654 -0.05632,-0.09608 -0.08664,-0.14119 -0.0017,-0.0025 -0.0047,-0.0039 -0.0064,-0.0064 -0.03036,-0.04494 -0.06073,-0.08811 -0.09306,-0.131563 -0.0018,-0.0024 -0.0046,-0.004 -0.0064,-0.0064 -0.03243,-0.04337 -0.06514,-0.08654 -0.09947,-0.128354 -0.0019,-0.0023 -0.0045,-0.0041 -0.0064,-0.0064 -0.03537,-0.04286 -0.0686,-0.08401 -0.105892,-0.125146 -10e-4,-0.0011 -0.0022,-0.0021 -0.0032,-0.0032 -0.001,-0.0011 -0.0022,-0.0021 -0.0032,-0.0032 -0.03643,-0.03988 -0.07412,-0.07733 -0.11231,-0.11552 -0.242145,-0.243065 -0.517769,-0.450628 -0.821469,-0.616101 -0.0013,-6.87e-4 -0.0019,-0.0025 -0.0032,-0.0032 -0.09901,-0.05379 -0.203662,-0.103208 -0.308051,-0.147608 -0.0022,-9.22e-4 -0.0042,-0.0023 -0.0064,-0.0032 -0.426706,-0.180483 -0.893782,-0.28238 -1.386229,-0.28238 z"
           transform="matrix(0.18951682,0,0,0.18951682,-109.3365,228.00986)" /><rect
           style="fill:#666666;fill-opacity:1;stroke-width:0.17258;stop-color:#000000"
           id="rect21815"
           width="0.20919019"
           height="10.05074"
           x="-111.37224"
           y="242.80463"
           rx="0.10459509"
           ry="0.10459509" /><text
           xml:space="preserve"
           style="font-style:normal;font-variant:normal;font-weight:normal;font-stretch:normal;font-size:5.02787px;line-height:normal;font-family:Montserrat;-inkscape-font-specification:Montserrat;text-align:center;text-decoration-color:#000000;text-anchor:middle;fill:#ffffff;fill-opacity:1;stroke-width:0.312124;stop-color:#000000"
           x="-89.660034"
           y="246.23442"
           id="text21827"><tspan
             sodipodi:role="line"
             id="tspan21825"
             style="font-style:normal;font-variant:normal;font-weight:normal;font-stretch:normal;font-family:Poppins;-inkscape-font-specification:Poppins;fill:#ffffff;fill-opacity:1;stroke-width:0.312124"
             x="-89.660034"
             y="246.23442">®</tspan></text><text
           xml:space="preserve"
           style="font-style:normal;font-variant:normal;font-weight:bold;font-stretch:normal;font-size:5.02787px;line-height:normal;font-family:Montserrat;-inkscape-font-specification:'Montserrat Bold';text-align:center;text-decoration-color:#000000;text-anchor:middle;fill:#ffffff;fill-opacity:1;stroke-width:0.312124;stop-color:#000000"
           x="-105.38421"
           y="247.15782"
           id="text21819"><tspan
             sodipodi:role="line"
             id="tspan21817"
             style="font-style:normal;font-variant:normal;font-weight:bold;font-stretch:normal;font-family:Poppins;-inkscape-font-specification:'Poppins Bold';fill:#ffffff;fill-opacity:1;stroke-width:0.312124"
             x="-105.38421"
             y="247.15782">we</tspan></text><text
           xml:space="preserve"
           style="font-style:normal;font-variant:normal;font-weight:normal;font-stretch:normal;font-size:5.02787px;line-height:normal;font-family:Montserrat;-inkscape-font-specification:Montserrat;text-align:center;text-decoration-color:#000000;text-anchor:middle;fill:#ffffff;fill-opacity:1;stroke-width:0.312124;stop-color:#000000"
           x="-96.405556"
           y="247.12515"
           id="text21823"><tspan
             sodipodi:role="line"
             id="tspan21821"
             style="font-style:normal;font-variant:normal;font-weight:500;font-stretch:normal;font-family:Poppins;-inkscape-font-specification:'Poppins Medium';fill:#ffffff;fill-opacity:1;stroke-width:0.312124"
             x="-96.405556"
             y="247.12515">max</tspan></text><text
           xml:space="preserve"
           style="font-style:normal;font-variant:normal;font-weight:normal;font-stretch:normal;font-size:3.72606px;line-height:normal;font-family:Montserrat;-inkscape-font-specification:Montserrat;text-align:center;text-decoration-color:#000000;text-anchor:middle;fill:#ff1b6d;fill-opacity:1;stroke-width:0.231309;stop-color:#000000"
           x="-95.285439"
           y="251.13519"
           id="text21833"><tspan
             sodipodi:role="line"
             id="tspan21831"
             style="font-style:normal;font-variant:normal;font-weight:500;font-stretch:normal;font-family:Poppins;-inkscape-font-specification:'Poppins Medium';fill:#ff1b6d;fill-opacity:1;stroke-width:0.231309"
             x="-95.285439"
             y="251.13519">suite</tspan></text></g></g></g></svg>
